<?xml version="1.0" standalone="no"?>
<!DOCTYPE svg PUBLIC "-//W3C//DTD SVG 20010904//EN"
 "http://www.w3.org/TR/2001/REC-SVG-20010904/DTD/svg10.dtd">
<svg version="1.0" xmlns="http://www.w3.org/2000/svg"
 width="300.000000pt" height="300.000000pt" viewBox="0 0 300.000000 300.000000"
 preserveAspectRatio="xMidYMid meet">
<metadata>
Created by potrace 1.10, written by Peter Selinger 2001-2011
</metadata>
<g transform="translate(0.000000,300.000000) scale(0.100000,-0.100000)"
fill="#000000" stroke="none">
<path d="M675 1965 l-25 -24 0 -316 c0 -187 4 -324 10 -335 13 -24 62 -40 121
-40 36 0 55 6 78 26 l31 26 0 315 0 315 -29 29 c-27 26 -36 29 -96 29 -57 0
-69 -3 -90 -25z m175 -345 l0 -330 -80 0 -80 0 0 330 0 330 80 0 80 0 0 -330z"/>
<path d="M1742 1827 c-26 -34 -60 -65 -94 -84 -53 -30 -53 -31 -80 -12 -57 41
-140 16 -168 -51 -14 -34 -26 -38 -34 -12 -4 10 -20 31 -36 47 -26 25 -40 30
-93 32 -77 5 -111 -11 -115 -52 -3 -36 163 -381 204 -421 22 -23 27 -24 47
-12 12 8 40 49 62 92 42 85 42 79 0 180 -7 16 -6 17 13 7 29 -15 78 -14 112 4
26 14 29 13 34 -3 3 -9 5 -48 5 -87 -1 -38 3 -82 9 -96 14 -36 60 -87 93 -104
58 -31 160 -9 175 37 3 11 -4 30 -20 49 -15 18 -26 43 -26 60 0 16 2 29 4 29
2 0 14 -20 26 -45 58 -119 213 -180 320 -125 67 34 52 66 -44 94 -62 18 -67
36 -64 211 2 83 -1 156 -5 163 -31 48 -167 -35 -208 -127 -8 -17 -17 -31 -20
-31 -4 0 -8 61 -11 136 -4 119 -7 137 -25 156 l-21 20 -40 -55z m85 -508 l32
-16 -25 -12 c-14 -6 -45 -11 -69 -11 -35 0 -52 6 -79 31 -48 41 -56 78 -56
252 0 146 0 147 23 147 54 0 120 74 129 145 1 11 5 -101 8 -250 l5 -270 32
-16z m-272 376 c51 -50 20 -129 -50 -129 -45 0 -75 31 -75 76 0 36 40 78 75
78 14 0 37 -11 50 -25z m505 19 c0 -3 -7 -12 -15 -20 -23 -23 -22 -300 1 -333
21 -30 72 -51 126 -52 l43 -1 -34 -15 c-19 -8 -59 -14 -88 -14 -167 0 -270
170 -194 319 23 45 53 73 106 100 42 22 55 26 55 16z m-691 -142 l69 -137 -38
-75 c-21 -41 -40 -75 -43 -75 -3 0 -53 96 -111 213 l-106 212 80 0 80 0 69
-138z"/>
<path d="M914 1729 c-12 -20 -6 -449 7 -465 16 -19 43 -18 87 5 135 70 183
248 99 372 -46 70 -169 126 -193 88z m76 -34 c96 -49 147 -181 107 -278 -29
-67 -112 -137 -164 -137 -16 0 -16 1 1 13 16 12 17 32 16 202 0 164 -3 192
-18 208 -16 19 -16 19 8 12 14 -4 36 -13 50 -20z"/>
<path d="M2129 1730 c-14 -8 -16 -24 -11 -107 6 -130 17 -143 117 -143 63 0
74 3 95 25 21 23 22 28 11 64 -31 105 -152 196 -212 161z m107 -65 c33 -25 74
-97 74 -131 0 -17 -8 -19 -75 -19 l-75 0 0 80 c0 58 -5 87 -16 103 l-16 23 38
-16 c21 -8 52 -27 70 -40z"/>
<path d="M1155 1218 c-34 -26 -55 -74 -48 -109 3 -15 20 -42 39 -60 28 -27 43
-34 75 -34 34 0 46 6 75 38 47 51 47 101 0 151 -27 30 -40 36 -73 36 -26 0
-50 -8 -68 -22z m123 -44 c25 -28 27 -45 10 -77 -37 -70 -125 -59 -144 18 -12
47 43 101 91 88 11 -2 30 -16 43 -29z"/>
</g>
</svg>
